<svg t="1745744422069" class="icon" viewBox="0 0 1024 1024" version="1.1" xmlns="http://www.w3.org/2000/svg" p-id="3912" width="200" height="200"><path d="M332.41088 805.2736h-0.06144a117.02272 117.02272 0 0 1-82.944-34.48832 117.08416 117.08416 0 0 1-34.48832-82.944V171.90912c0-21.13536 5.05856-40.28416 14.21312-57.46688 5.98016-11.6736 14.35648-22.7328 24.82176-33.05472l0.4096-0.4096c0.57344-0.59392 1.16736-1.14688 1.78176-1.72032l0.1024-0.1024c26.27584-25.27232 63.36512-44.38016 106.14784-57.36448C406.1184 8.192 457.40032 0.32768 512 0.32768c40.59136 0 79.31904 4.36224 114.4832 12.14464l2.82624 0.59392c66.17088 14.49984 122.83904 42.1888 154.0096 83.27168 3.3792 4.4032 6.38976 8.9088 9.05216 13.53728 10.30144 17.7152 16.19968 37.60128 16.60928 59.6992l0.08192 0.06144v496.90624c0 140.0832-95.72352 158.37184-208.65024 179.95776-22.26176 4.25984-45.21984 8.64256-67.13344 13.98784-41.90208 10.19904-71.04512 27.9552-94.84288 53.80096-24.7808 26.89024-44.7488 63.36512-67.31776 109.3632l-38.68672-8.9088V805.2736h-0.02048z m179.54816-718.21312c32.4608 0 62.34112 5.81632 84.31616 15.17568 27.15648 11.55072 43.99104 29.47072 43.99104 50.97472 0 21.504-16.83456 39.424-43.97056 50.97472-21.97504 9.35936-51.85536 15.17568-84.31616 15.17568s-62.34112-5.81632-84.31616-15.17568c-27.136-11.5712-43.97056-29.4912-43.97056-50.97472 0-21.504 16.83456-39.424 43.99104-50.97472 21.95456-9.35936 51.8144-15.17568 84.2752-15.17568z m0 40.09984c-27.15648 0-51.42528 4.54656-68.64896 11.8784-12.06272 5.14048-19.5584 10.28096-19.5584 14.15168 0 3.8912 7.4752 9.03168 19.53792 14.17216 17.22368 7.33184 41.49248 11.8784 68.64896 11.8784s51.42528-4.54656 68.66944-11.8784c12.06272-5.14048 19.53792-10.28096 19.53792-14.17216 0-3.8912-7.49568-9.03168-19.5584-14.15168-17.2032-7.33184-41.472-11.8784-68.62848-11.8784z m212.23424 140.288c-39.09632 21.44256-90.4192 36.9664-147.968 43.60192-12.82048 1.47456-22.95808 2.2528-33.50528 3.072-54.04672 4.15744-120.19712 9.27744-169.55392 57.01632V934.0928c10.9568-17.6128 22.46656-33.36192 35.30752-47.3088 29.22496-31.744 64.65536-53.43232 115.22048-65.76128a1398.86592 1398.86592 0 0 1 69.05856-14.45888c95.00672-18.16576 175.55456-33.56672 175.55456-140.00128V235.99104a217.74336 217.74336 0 0 1-44.11392 31.45728z m-323.95264 35.67616c-33.87392-7.29088-64.49152-17.8176-90.35776-30.76096-21.4016-10.73152-39.71072-23.20384-54.21056-37.08928v452.54656c0 21.07392 8.64256 40.2432 22.54848 54.14912a76.43136 76.43136 0 0 0 54.14912 22.528h0.06144V362.82368c-0.02048-29.63456 41.69728-47.04256 67.80928-59.6992zM376.70912 59.96544a310.272 310.272 0 0 0-48.68096 19.12832 198.4512 198.4512 0 0 0-36.43392 23.06048c-12.86144 10.83392-22.75328 23.12192-28.8768 36.80256-2.31424 6.08256-3.54304 12.288-3.54304 18.55488 0 29.2864 26.35776 57.1392 68.87424 78.41792 46.85824 23.4496 111.9232 37.9904 183.97184 37.9904 72.04864 0 137.1136-14.5408 183.95136-37.9904 42.51648-21.27872 68.87424-49.13152 68.87424-78.41792 0-6.49216-1.31072-12.9024-3.7888-19.18976a98.22208 98.22208 0 0 0-19.94752-28.4672c-11.50976-11.20256-26.80832-21.58592-45.11744-30.76096-21.89312-10.97728-47.80032-19.968-76.51328-26.48064-34.73408-7.49568-72.58112-11.12064-110.40768-10.89536-38.23616 0.24576-76.30848 4.46464-111.04256 12.61568-7.29088 1.69984-14.39744 3.584-21.31968 5.632z" fill="#595757" p-id="3913"></path></svg>